# xmcd
# 
# Track frame offsets:
#     150
#     20029
#     45746
#     65576
# 
# Disc length: 1215
# 
# Revision: 1
# Processed by: cddbd v1.5.2PL0 Copyright (c) Steve Scherf et al.
# Submitted via: fre:ac v1.0.17
# 
DISCID=3304bd04
DTITLE=ももいろクローバーＺ - 泣いちゃいそう冬
DYEAR=2013
DGENRE=JPop
TTITLE0=泣いちゃいそう冬
TTITLE1=鋼の意志
TTITLE2=泣いちゃいそう冬(off vocal)
TTITLE3=鋼の意志(off vocal)
EXTD=
EXTT0=
EXTT1=
EXTT2=
EXTT3=
PLAYORDER=
